<svg width="23" height="26" viewBox="0 0 23 26" fill="none" xmlns="http://www.w3.org/2000/svg">
<path d="M21.62 4.72727H17.48V3.30909C17.48 2.43147 17.1408 1.58979 16.5369 0.96921C15.933 0.348635 15.114 0 14.26 0H8.74C7.886 0 7.06698 0.348635 6.46312 0.96921C5.85925 1.58979 5.52 2.43147 5.52 3.30909V4.72727H1.38C1.014 4.72727 0.662993 4.87669 0.404193 5.14265C0.145392 5.40861 0 5.76933 0 6.14545C0 6.52158 0.145392 6.8823 0.404193 7.14826C0.662993 7.41422 1.014 7.56364 1.38 7.56364H1.84V23.6364C1.84 24.2632 2.08232 24.8644 2.51365 25.3077C2.94499 25.751 3.53 26 4.14 26H18.86C19.47 26 20.055 25.751 20.4863 25.3077C20.9177 24.8644 21.16 24.2632 21.16 23.6364V7.56364H21.62C21.986 7.56364 22.337 7.41422 22.5958 7.14826C22.8546 6.8823 23 6.52158 23 6.14545C23 5.76933 22.8546 5.40861 22.5958 5.14265C22.337 4.87669 21.986 4.72727 21.62 4.72727ZM8.28 3.30909C8.28 3.18372 8.32846 3.06348 8.41473 2.97482C8.501 2.88617 8.618 2.83636 8.74 2.83636H14.26C14.382 2.83636 14.499 2.88617 14.5853 2.97482C14.6715 3.06348 14.72 3.18372 14.72 3.30909V4.72727H8.28V3.30909ZM18.4 23.1636H4.6V7.56364H18.4V23.1636ZM10.12 11.3455V18.9091C10.12 19.2852 9.97461 19.6459 9.71581 19.9119C9.45701 20.1779 9.106 20.3273 8.74 20.3273C8.374 20.3273 8.02299 20.1779 7.76419 19.9119C7.50539 19.6459 7.36 19.2852 7.36 18.9091V11.3455C7.36 10.9693 7.50539 10.6086 7.76419 10.3426C8.02299 10.0767 8.374 9.92727 8.74 9.92727C9.106 9.92727 9.45701 10.0767 9.71581 10.3426C9.97461 10.6086 10.12 10.9693 10.12 11.3455ZM15.64 11.3455V18.9091C15.64 19.2852 15.4946 19.6459 15.2358 19.9119C14.977 20.1779 14.626 20.3273 14.26 20.3273C13.894 20.3273 13.543 20.1779 13.2842 19.9119C13.0254 19.6459 12.88 19.2852 12.88 18.9091V11.3455C12.88 10.9693 13.0254 10.6086 13.2842 10.3426C13.543 10.0767 13.894 9.92727 14.26 9.92727C14.626 9.92727 14.977 10.0767 15.2358 10.3426C15.4946 10.6086 15.64 10.9693 15.64 11.3455Z" fill="#FF5959"/>
</svg>
