<svg width="771" height="405" viewBox="0 0 771 405" fill="none" xmlns="http://www.w3.org/2000/svg">
<mask id="mask0_211_14" style="mask-type:alpha" maskUnits="userSpaceOnUse" x="0" y="0" width="771" height="405">
<rect width="771" height="405" fill="#D9D9D9"/>
</mask>
<g mask="url(#mask0_211_14)">
<path d="M37.5116 124.573C37.5116 47.5929 120.845 -0.519558 187.512 37.9705L322.512 115.913C389.178 154.403 389.178 250.628 322.512 289.118L187.512 367.06C120.845 405.55 37.5116 357.438 37.5116 280.458L37.5116 124.573Z" fill="#A485E8"/>
<path d="M476.121 97.775C510.335 28.8158 606.368 22.7536 648.982 86.863L735.275 216.684C777.888 280.794 735.121 366.993 658.294 371.842L502.719 381.663C425.892 386.513 372.625 306.376 406.839 237.417L476.121 97.775Z" fill="#A485E8"/>
</g>
</svg>
